# xmcd CD database file
#
# Track frame offsets:
#	150
#	19575
#	36980
#	50183
#	68687
#	86250
#	101072
#	119965
#	136677
#	151785
#	168533
#	185439
#
# Disc length: 2671 seconds
#
# Revision: 1
# Processed by: cddbd v1.5.1PL2 Copyright (c) Steve Scherf et al.
# Submitted via: CDex 1.51
#
DISCID=9f0a6d0c
DTITLE=GULBEN ERGEN - 2006
DYEAR=2006
DGENRE=Pop-Folk
TTITLE0=YANI
TTITLE1=MIS GIBI
TTITLE2=AMOR
TTITLE3=BELKI
TTITLE4=BEN OLSAYDIM
TTITLE5=LAY LA LAY LALAY
TTITLE6=YALNIZLIK
TTITLE7=ASIKSIN SEN
TTITLE8=OLTA
TTITLE9=NIHAYET
TTITLE10=BU GECE
TTITLE11=BILE BILE
EXTD=YEAR: 2006
EXTT0=
EXTT1=
EXTT2=
EXTT3=
EXTT4=
EXTT5=
EXTT6=
EXTT7=
EXTT8=
EXTT9=
EXTT10=
EXTT11=
PLAYORDER=
